<?xml version="1.0" encoding="UTF-8"?>
<svg width="24px" height="24px" viewBox="0 0 24 24" version="1.1" xmlns="http://www.w3.org/2000/svg" xmlns:xlink="http://www.w3.org/1999/xlink">
    <title>Iconly/Curved/Message</title>
    <g id="Raw-File" stroke="none" stroke-width="1" fill="none" fill-rule="evenodd">
        <g id="Login" transform="translate(-35.000000, -232.000000)">
            <g id="Group-740" transform="translate(35.000000, 232.000000)">
                <g id="Iconly/Curved/Message" transform="translate(0.000000, 0.000000)">
                    <path d="M0,0 L24,0 L24,24 L0,24 L0,0 Z" id="Iconly/Curved/Message-(Background)"></path>
                    <g id="Message" transform="translate(2.452148, 2.851562)" stroke="#A4A4A6" stroke-dasharray="0,0" stroke-linecap="round" stroke-linejoin="round" stroke-width="1.5">
                        <path d="M15.0927715,6.16699219 C15.0927715,6.16699219 11.8827465,10.0196238 9.53487682,10.0196238 C7.97029877,10.0196238 6.10597134,8.73541323 3.94189453,6.16699219" id="Stroke-1"></path>
                        <path d="M9.52380943,0 C16.6666665,0 19.0476189,2.27869654 19.0476189,9.11679173 C19.0476189,15.9538846 16.6666665,18.2335835 9.52380943,18.2335835 C2.38095236,18.2335835 0,15.9538846 0,9.11679173 C0,2.27869654 2.38095236,0 9.52380943,0 Z" id="Stroke-3"></path>
                    </g>
                </g>
            </g>
        </g>
    </g>
</svg>